<mxfile host="65bd71144e">
    <diagram name="Page-1" id="c4acf3e9-155e-7222-9cf6-157b1a14988f">
        <mxGraphModel dx="3636" dy="2453" grid="1" gridSize="10" guides="1" tooltips="1" connect="1" arrows="1" fold="1" page="1" pageScale="1" pageWidth="850" pageHeight="1100" background="none" math="0" shadow="0">
            <root>
                <mxCell id="0"/>
                <mxCell id="1" parent="0"/>
                <mxCell id="7" value="Model" style="shape=folder;fontStyle=1;tabWidth=110;tabHeight=30;tabPosition=left;html=1;boundedLbl=1;labelInHeader=1;container=1;collapsible=0;" parent="1" vertex="1">
                    <mxGeometry x="-1040" y="30" width="1790" height="790" as="geometry"/>
                </mxCell>
                <mxCell id="13" value="Plan" style="shape=folder;fontStyle=1;tabWidth=110;tabHeight=30;tabPosition=left;html=1;boundedLbl=1;labelInHeader=1;container=1;collapsible=0;" parent="7" vertex="1">
                    <mxGeometry x="1080" y="59.995555555555555" width="650" height="653.287962962963" as="geometry"/>
                </mxCell>
                <mxCell id="5d2195bd80daf111-20" value="&lt;p style=&quot;margin: 4px 0px 0px; text-align: center; font-size: 14px;&quot;&gt;&lt;i style=&quot;font-size: 14px;&quot;&gt;&amp;lt;&amp;lt;Java Class&amp;gt;&amp;gt;&lt;/i&gt;&lt;/p&gt;&lt;p style=&quot;margin: 4px 0px 0px; text-align: center; font-size: 14px;&quot;&gt;&lt;i style=&quot;font-size: 14px;&quot;&gt;&amp;lt;&amp;lt;Value Object&amp;gt;&amp;gt;&lt;br style=&quot;font-size: 14px;&quot;&gt;&lt;/i&gt;&lt;b style=&quot;font-size: 14px;&quot;&gt;Point&lt;/b&gt;&lt;/p&gt;&lt;hr style=&quot;font-size: 14px;&quot;&gt;&lt;p style=&quot;margin: 0px 0px 0px 4px; font-size: 14px;&quot;&gt;+ id: int&lt;br style=&quot;font-size: 14px;&quot;&gt;+ latitude: double&lt;/p&gt;&lt;p style=&quot;margin: 0px 0px 0px 4px; font-size: 14px;&quot;&gt;+ longitude: double&lt;/p&gt;&lt;p style=&quot;margin: 0px 0px 0px 4px; font-size: 14px;&quot;&gt;+ type: TypePoint&lt;/p&gt;&lt;br style=&quot;font-size: 14px;&quot;&gt;&lt;hr style=&quot;font-size: 14px;&quot;&gt;&lt;p style=&quot;margin: 0px 0px 0px 4px; font-size: 14px;&quot;&gt;&lt;br style=&quot;font-size: 14px;&quot;&gt;&lt;/p&gt;" style="verticalAlign=top;align=left;overflow=fill;fontSize=14;fontFamily=Helvetica;html=1;rounded=0;shadow=0;comic=0;labelBackgroundColor=none;strokeWidth=1" parent="13" vertex="1">
                    <mxGeometry x="26.000634920634923" y="370.73633290945975" width="210.10476190476192" height="247.4147919991696" as="geometry"/>
                </mxCell>
                <mxCell id="5d2195bd80daf111-18" value="&lt;p style=&quot;margin: 4px 0px 0px; text-align: center; font-size: 14px;&quot;&gt;&lt;i style=&quot;font-size: 14px;&quot;&gt;&amp;lt;&amp;lt;Java Class&amp;gt;&amp;gt;&lt;/i&gt;&lt;/p&gt;&lt;p style=&quot;margin: 4px 0px 0px; text-align: center; font-size: 14px;&quot;&gt;&lt;i style=&quot;font-size: 14px;&quot;&gt;&amp;lt;&amp;lt;Singleton&amp;gt;&amp;gt;&lt;/i&gt;&lt;/p&gt;&lt;p style=&quot;margin: 4px 0px 0px; text-align: center; font-size: 14px;&quot;&gt;&lt;b style=&quot;font-size: 14px;&quot;&gt;Plan&lt;/b&gt;&lt;/p&gt;&lt;hr style=&quot;font-size: 14px;&quot;&gt;&lt;p style=&quot;margin: 0px 0px 0px 4px; font-size: 14px;&quot;&gt;+ point: Liste&amp;lt;Point&amp;gt;&lt;br style=&quot;font-size: 14px;&quot;&gt;+ segments: Liste&amp;lt;Segment&amp;gt;&lt;/p&gt;&lt;hr style=&quot;font-size: 14px;&quot;&gt;&lt;p style=&quot;margin: 0px 0px 0px 4px; font-size: 14px;&quot;&gt;+ obtenirPoint(id: Int): Point&lt;/p&gt;&lt;p style=&quot;margin: 0px 0px 0px 4px; font-size: 14px;&quot;&gt;+ obtenirPoints(): Liste&amp;lt;Point&amp;gt;&lt;br style=&quot;font-size: 14px;&quot;&gt;&lt;/p&gt;&lt;p style=&quot;margin: 0px 0px 0px 4px; font-size: 14px;&quot;&gt;+ obtenirSegments(): Liste&amp;lt;Segment&amp;gt;&lt;/p&gt;" style="verticalAlign=top;align=left;overflow=fill;fontSize=14;fontFamily=Helvetica;html=1;rounded=0;shadow=0;comic=0;labelBackgroundColor=none;strokeWidth=1" parent="13" vertex="1">
                    <mxGeometry x="22.15926760973025" y="73.46814924607371" width="213.9463423056584" height="254.87685107282323" as="geometry"/>
                </mxCell>
                <mxCell id="5d2195bd80daf111-10" value="&lt;p style=&quot;margin: 4px 0px 0px; text-align: center; font-size: 14px;&quot;&gt;&lt;i style=&quot;font-size: 14px;&quot;&gt;&amp;lt;&amp;lt;Java Class&amp;gt;&amp;gt;&lt;/i&gt;&lt;/p&gt;&lt;p style=&quot;margin: 4px 0px 0px; text-align: center; font-size: 14px;&quot;&gt;&lt;i style=&quot;font-size: 14px;&quot;&gt;&amp;lt;&amp;lt;Value Object&amp;gt;&amp;gt;&lt;br style=&quot;font-size: 14px;&quot;&gt;&lt;/i&gt;&lt;b style=&quot;font-size: 14px;&quot;&gt;Segment&lt;/b&gt;&lt;/p&gt;&lt;hr style=&quot;font-size: 14px;&quot;&gt;&lt;p style=&quot;margin: 0px 0px 0px 4px; font-size: 14px;&quot;&gt;&lt;span style=&quot;background-color: initial; font-size: 14px;&quot;&gt;+ longueur: Float&lt;/span&gt;&lt;/p&gt;&lt;p style=&quot;margin: 0px 0px 0px 4px; font-size: 14px;&quot;&gt;&lt;span style=&quot;background-color: initial; font-size: 14px;&quot;&gt;+ nom: String&lt;/span&gt;&lt;/p&gt;&lt;p style=&quot;margin: 0px 0px 0px 4px; font-size: 14px;&quot;&gt;&lt;span style=&quot;background-color: initial; font-size: 14px;&quot;&gt;+ debut: Point&lt;/span&gt;&lt;/p&gt;&lt;p style=&quot;margin: 0px 0px 0px 4px; font-size: 14px;&quot;&gt;&lt;span style=&quot;background-color: initial; font-size: 14px;&quot;&gt;+ fin: Point&lt;/span&gt;&lt;/p&gt;&lt;hr style=&quot;font-size: 14px;&quot;&gt;&lt;p style=&quot;margin: 0px 0px 0px 4px; font-size: 14px;&quot;&gt;&lt;br style=&quot;font-size: 14px;&quot;&gt;&lt;/p&gt;" style="verticalAlign=top;align=left;overflow=fill;fontSize=14;fontFamily=Helvetica;html=1;rounded=0;shadow=0;comic=0;labelBackgroundColor=none;strokeWidth=1" parent="13" vertex="1">
                    <mxGeometry x="276.00174603174605" y="111.47546353605736" width="176.9547619047619" height="178.85884624201455" as="geometry"/>
                </mxCell>
                <mxCell id="57" value="&lt;p style=&quot;margin: 4px 0px 0px; text-align: center; font-size: 14px;&quot;&gt;&lt;i style=&quot;font-size: 14px;&quot;&gt;&amp;lt;&amp;lt;Enumeration&amp;gt;&amp;gt;&lt;/i&gt;&lt;/p&gt;&lt;p style=&quot;margin: 4px 0px 0px; text-align: center; font-size: 14px;&quot;&gt;TypePoint&lt;/p&gt;&lt;hr style=&quot;font-size: 14px;&quot;&gt;&lt;p style=&quot;margin: 0px 0px 0px 4px; font-size: 14px;&quot;&gt;entrepot, intersection, pickup, destination&lt;/p&gt;&lt;p style=&quot;margin: 0px 0px 0px 4px; font-size: 14px;&quot;&gt;&lt;br style=&quot;font-size: 14px;&quot;&gt;&lt;/p&gt;" style="verticalAlign=top;align=left;overflow=fill;fontSize=14;fontFamily=Helvetica;html=1;rounded=0;shadow=0;comic=0;labelBackgroundColor=none;strokeWidth=1" parent="13" vertex="1">
                    <mxGeometry x="276" y="413.5239705882353" width="264" height="114.07323529411764" as="geometry"/>
                </mxCell>
                <mxCell id="17" value="Deliveries" style="shape=folder;fontStyle=1;tabWidth=110;tabHeight=30;tabPosition=left;html=1;boundedLbl=1;labelInHeader=1;container=1;collapsible=0;" parent="7" vertex="1">
                    <mxGeometry x="420" y="60.00058823529412" width="620" height="480.6158823529412" as="geometry"/>
                </mxCell>
                <mxCell id="16" value="&lt;p style=&quot;margin: 4px 0px 0px; text-align: center; font-size: 14px;&quot;&gt;&lt;i style=&quot;font-size: 14px;&quot;&gt;&amp;lt;&amp;lt;Java Class&amp;gt;&amp;gt;&lt;/i&gt;&lt;/p&gt;&lt;p style=&quot;margin: 4px 0px 0px; text-align: center; font-size: 14px;&quot;&gt;&lt;b style=&quot;font-size: 14px;&quot;&gt;Circuit&lt;/b&gt;&lt;/p&gt;&lt;hr style=&quot;font-size: 14px;&quot;&gt;&lt;p style=&quot;margin: 0px 0px 0px 4px; font-size: 14px;&quot;&gt;+ segments: Liste&amp;lt;Segment&amp;gt;&lt;/p&gt;&lt;hr style=&quot;font-size: 14px;&quot;&gt;&lt;p style=&quot;margin: 0px 0px 0px 4px; font-size: 14px;&quot;&gt;&lt;br style=&quot;font-size: 14px;&quot;&gt;&lt;/p&gt;" style="verticalAlign=top;align=left;overflow=fill;fontSize=14;fontFamily=Helvetica;html=1;rounded=0;shadow=0;comic=0;labelBackgroundColor=none;strokeWidth=1" parent="17" vertex="1">
                    <mxGeometry x="346.47058823529414" y="278.276595882353" width="218.82352941176472" height="174.76941176470595" as="geometry"/>
                </mxCell>
                <mxCell id="45" value="&lt;p style=&quot;margin: 4px 0px 0px; text-align: center; font-size: 14px;&quot;&gt;&lt;i style=&quot;font-size: 14px;&quot;&gt;&amp;lt;&amp;lt;Java Class&amp;gt;&amp;gt;&lt;/i&gt;&lt;/p&gt;&lt;p style=&quot;margin: 4px 0px 0px; text-align: center; font-size: 14px;&quot;&gt;&lt;b style=&quot;font-size: 14px;&quot;&gt;Tournee&lt;/b&gt;&lt;/p&gt;&lt;hr style=&quot;font-size: 14px;&quot;&gt;&lt;p style=&quot;margin: 0px 0px 0px 4px; font-size: 14px;&quot;&gt;+ livraisons: Liste&amp;lt;Livraison&amp;gt;&lt;/p&gt;&lt;p style=&quot;margin: 0px 0px 0px 4px; font-size: 14px;&quot;&gt;+ circuit: Circuit&lt;/p&gt;&lt;hr style=&quot;font-size: 14px;&quot;&gt;&lt;p style=&quot;margin: 0px 0px 0px 4px; font-size: 14px;&quot;&gt;&lt;br style=&quot;font-size: 14px;&quot;&gt;&lt;/p&gt;" style="verticalAlign=top;align=left;overflow=fill;fontSize=14;fontFamily=Helvetica;html=1;rounded=0;shadow=0;comic=0;labelBackgroundColor=none;strokeWidth=1" parent="17" vertex="1">
                    <mxGeometry x="197.41529411764705" y="58.25647058823531" width="225.1785294117647" height="164.8658117647059" as="geometry"/>
                </mxCell>
                <mxCell id="21" value="&lt;p style=&quot;margin: 4px 0px 0px; text-align: center; font-size: 14px;&quot;&gt;&lt;i style=&quot;font-size: 14px;&quot;&gt;&amp;lt;&amp;lt;Java Class&amp;gt;&amp;gt;&lt;/i&gt;&lt;/p&gt;&lt;p style=&quot;margin: 4px 0px 0px; text-align: center; font-size: 14px;&quot;&gt;&lt;b style=&quot;font-size: 14px;&quot;&gt;Livraison&lt;/b&gt;&lt;/p&gt;&lt;hr style=&quot;font-size: 14px;&quot;&gt;&lt;p style=&quot;margin: 0px 0px 0px 4px; font-size: 14px;&quot;&gt;+ pickup: Point&lt;br style=&quot;font-size: 14px;&quot;&gt;+ destination: Point&lt;/p&gt;&lt;hr style=&quot;font-size: 14px;&quot;&gt;&lt;p style=&quot;margin: 0px 0px 0px 4px; font-size: 14px;&quot;&gt;&lt;br style=&quot;font-size: 14px;&quot;&gt;&lt;/p&gt;" style="verticalAlign=top;align=left;overflow=fill;fontSize=14;fontFamily=Helvetica;html=1;rounded=0;shadow=0;comic=0;labelBackgroundColor=none;strokeWidth=1" parent="17" vertex="1">
                    <mxGeometry x="45.58823529411766" y="276.71823529411773" width="225.1785294117647" height="176.3277723529412" as="geometry"/>
                </mxCell>
                <mxCell id="51" value="Outils" style="shape=folder;fontStyle=1;tabWidth=110;tabHeight=30;tabPosition=left;html=1;boundedLbl=1;labelInHeader=1;container=1;collapsible=0;" parent="7" vertex="1">
                    <mxGeometry x="570" y="580" width="320" height="189.85" as="geometry"/>
                </mxCell>
                <mxCell id="59" value="&lt;p style=&quot;margin: 4px 0px 0px; text-align: center; font-size: 14px;&quot;&gt;&lt;i style=&quot;font-size: 14px;&quot;&gt;&amp;lt;&amp;lt;Java Class&amp;gt;&amp;gt;&lt;/i&gt;&lt;br style=&quot;font-size: 14px;&quot;&gt;&lt;b style=&quot;font-size: 14px;&quot;&gt;ParseurXML&lt;/b&gt;&lt;/p&gt;&lt;hr style=&quot;font-size: 14px;&quot;&gt;&lt;p style=&quot;margin: 0px 0px 0px 4px; font-size: 14px;&quot;&gt;&lt;br style=&quot;font-size: 14px;&quot;&gt;&lt;/p&gt;&lt;hr style=&quot;font-size: 14px;&quot;&gt;&lt;p style=&quot;margin: 0px 0px 0px 4px; font-size: 14px;&quot;&gt;+ parseXML(pathFichier: String) : JSONArray&lt;/p&gt;&lt;p style=&quot;margin: 0px 0px 0px 4px; font-size: 14px;&quot;&gt;&lt;br style=&quot;font-size: 14px;&quot;&gt;&lt;/p&gt;" style="verticalAlign=top;align=left;overflow=fill;fontSize=14;fontFamily=Helvetica;html=1;rounded=0;shadow=0;comic=0;labelBackgroundColor=none;strokeWidth=1" parent="51" vertex="1">
                    <mxGeometry x="20.65" y="44.67110991731676" width="289.35" height="139.87547064044472" as="geometry"/>
                </mxCell>
                <mxCell id="62" value="&lt;p style=&quot;margin: 4px 0px 0px; text-align: center; font-size: 14px;&quot;&gt;&lt;i style=&quot;font-size: 14px;&quot;&gt;&amp;lt;&amp;lt;Java Class&amp;gt;&amp;gt;&lt;/i&gt;&lt;/p&gt;&lt;p style=&quot;margin: 4px 0px 0px; text-align: center; font-size: 14px;&quot;&gt;&lt;b style=&quot;font-size: 14px;&quot;&gt;Services&lt;/b&gt;&lt;/p&gt;&lt;hr style=&quot;font-size: 14px;&quot;&gt;&lt;p style=&quot;margin: 0px 0px 0px 4px; font-size: 14px;&quot;&gt;+ planVille : Plan&lt;/p&gt;&lt;p style=&quot;margin: 0px 0px 0px 4px; font-size: 14px;&quot;&gt;+ livraisonsDues: Liste&amp;lt;Livraison&amp;gt;&lt;br&gt;&lt;/p&gt;&lt;p style=&quot;margin: 0px 0px 0px 4px; font-size: 14px;&quot;&gt;+ tourneesPrevues: Liste&amp;lt;Tournee&amp;gt;&lt;/p&gt;&lt;p style=&quot;margin: 0px 0px 0px 4px; font-size: 14px;&quot;&gt;+ lieuEntrepot: Point&lt;/p&gt;&lt;p style=&quot;margin: 0px 0px 0px 4px; font-size: 14px;&quot;&gt;-&amp;nbsp; parseurXML: ParseurXML&lt;/p&gt;&lt;hr style=&quot;font-size: 14px;&quot;&gt;&lt;p style=&quot;margin: 0px 0px 0px 4px; font-size: 14px;&quot;&gt;+ chargerPlan(pathFichier: String): Plan&lt;/p&gt;" style="verticalAlign=top;align=left;overflow=fill;fontSize=14;fontFamily=Helvetica;html=1;rounded=0;shadow=0;comic=0;labelBackgroundColor=none;strokeWidth=1" parent="7" vertex="1">
                    <mxGeometry x="40" y="90" width="310" height="354.45" as="geometry"/>
                </mxCell>
                <mxCell id="65" style="edgeStyle=none;jumpSize=6;html=1;exitX=0;exitY=0;exitDx=620;exitDy=255.30794117647062;exitPerimeter=0;endArrow=open;endFill=0;endSize=6;dashed=1;strokeWidth=3;entryX=0;entryY=0.392;entryDx=0;entryDy=0;entryPerimeter=0;" edge="1" parent="7" source="17" target="13">
                    <mxGeometry relative="1" as="geometry">
                        <mxPoint x="910.0000000000009" y="-20" as="sourcePoint"/>
                        <mxPoint x="908.5800000000004" y="55.81999999999971" as="targetPoint"/>
                    </mxGeometry>
                </mxCell>
                <mxCell id="66" style="edgeStyle=none;jumpSize=6;html=1;exitX=1;exitY=0.5;exitDx=0;exitDy=0;endArrow=open;endFill=0;endSize=6;dashed=1;strokeWidth=3;entryX=-0.002;entryY=0.434;entryDx=0;entryDy=0;entryPerimeter=0;" edge="1" parent="7" source="62" target="17">
                    <mxGeometry relative="1" as="geometry">
                        <mxPoint x="1050" y="325.308529411765" as="sourcePoint"/>
                        <mxPoint x="1090" y="326.08443703703733" as="targetPoint"/>
                    </mxGeometry>
                </mxCell>
                <mxCell id="67" style="edgeStyle=none;jumpSize=6;html=1;exitX=0.75;exitY=1;exitDx=0;exitDy=0;endArrow=open;endFill=0;endSize=6;dashed=1;strokeWidth=3;entryX=0;entryY=0;entryDx=0;entryDy=109.925;entryPerimeter=0;" edge="1" parent="7" source="62" target="51">
                    <mxGeometry relative="1" as="geometry">
                        <mxPoint x="330" y="444.44499999999994" as="sourcePoint"/>
                        <mxPoint x="398.7600000000002" y="445.807881176471" as="targetPoint"/>
                        <Array as="points">
                            <mxPoint x="270" y="690"/>
                        </Array>
                    </mxGeometry>
                </mxCell>
                <mxCell id="11" value="View/Controller" style="shape=folder;fontStyle=1;tabWidth=110;tabHeight=30;tabPosition=left;html=1;boundedLbl=1;labelInHeader=1;container=1;collapsible=0;fillColor=#1ba1e2;fontColor=#ffffff;strokeColor=#006EAF;" parent="1" vertex="1">
                    <mxGeometry x="-1045" y="-310" width="1800" height="290" as="geometry"/>
                </mxCell>
                <mxCell id="12" value="&lt;font style=&quot;font-size: 40px;&quot;&gt;REACT&lt;/font&gt;" style="html=1;strokeColor=none;resizeWidth=1;resizeHeight=1;fillColor=none;part=1;connectable=0;allowArrows=0;deletable=0;" parent="11" vertex="1">
                    <mxGeometry width="1800" height="203" relative="1" as="geometry">
                        <mxPoint y="30" as="offset"/>
                    </mxGeometry>
                </mxCell>
                <mxCell id="64" value="" style="shape=image;verticalLabelPosition=bottom;labelBackgroundColor=default;verticalAlign=top;aspect=fixed;imageAspect=0;image=data:image/webp,UklGRigjAABXRUJQVlA4WAoAAAAYAAAA2wAAygAAQUxQSNMTAAAB8IZt23Kn1bYdY0RIMuLBPQnuEKg7ViiZaHCHGVpcCqEwa0AhVeptcElpSQVvJwRtg3sgWAk0uEsyYkOu40cy9lPGNeav+16WiJgA+j+1w+o0TWgUF24W4XGNEprUCfufoO6I5Qfuc/mPTv78VqdIb4rq9NYv2Y+4/Pv7lw2r49NqpOSwuOvgvGet3mB9fv4hF4ufnlHdVzVId7Hsq58l6NZu4TWW7Upv4Iuil7hY6dHkMH3CXj/GSl1Lon1On1us/NGCqnpU+/AxK7/Zy7f4f8VaFn9bVV2t70tYy8/9fUhkJuta8I5NTaWFxazr1gifEX6ANb4+yk9e4Ix81nhfmI+wZbHe2Z1lvXaB9d4T4hMsa1ncdSXnyNmrLlnMa2JkVPyRpbuunj2Sc8Utxj/4hGks6Ng0tlkFKhsQ13PeHocUvtVTrNctllq6Z17P2AAqW6H5uM1OAZ7sAxKcWP68yiQY2j09XwLzmhis4o8s8/Gqf9lIsMoH+ZijpekFHGf4t2okM3jwXxL4Vi+k922WuGdQEMmstg7iI/5mN4NR5ziS3nyVQ4h5SVB5wctY3LGyGUmf6ER4islFP0Qc3UllnUUuIT4WWybuOAuXflubVPZ0IPcjzG0Bg0Y/Utx0ixA/6EaU+JBF3atiSfFAA+C5phZpRz4i9R2Oi7Axb4HBonvbkvpPkPxwM5vK4IkADcg68oGAxHtDLaRhYDbAE03Mmgu425Ke1TaoWVeV9HzKAM5bzOslBteQtkl35T1MJm1/BvhZ8/oGcDfQh6ptkLW+Kunb2AC+NC2/W8AW0npUkYyikaT1f4GbVrN6gsFuelHrXLGLrUjv7gC3NatZwP0AzajKDZFrlUjzCg+BFLPaCSwlzStsZOF1gZrRCiDTpPzsQB/NKmxmiRsCNesP5FvNqRl7dkXrFbiRpf4RpFdlwxM3NKdhwEnSOvi/LHlLkFZ0FhhkTh8Dy7QK3sbStwZrtRqYb07rgAk6BW9nhduCdJoCZJjTKaCjRv4bGTZm/seAeJ2fRl2AY+ZkB2L1sSxl2BhLNNGAeJFG9YGHphTKnp1++sxn2HidiGicAfFcfQLcnjjIjOoB10nbsQwbY6ncf7shnqwN3QFqm9HTwAlt+rsh9yjyOMaA3H21yQbamVFnYLsuHUoZdY8gcLQb4ZJXdNkFvGBGPYH1mrTOZ9Q9jOBRBsKPW2myFWhvRoOBH/SocoXhKSQ4DuK8KnpsATqb0ShgiRYBexj+gIQ/gvivQC02AN183yKGV1vELEshXqHFL0BPMxoJLNVhKsOb/Emi3zqIJ+rwE5BkRiOA5Rp0ckF7Q0hqyH7I2VGDdGCQGfUDflHX4AGjOdEkOeIkwg/qq1sP9DKjTsAOZZHnGL1Vm6TXuY3wmXBlu4H2ZtQOOKrsN0adk3uPnpEyPzX1+7S0tRkZGRlr09K+S02dnzJ9dO/xpQj/ouwE0MaM6gO5qiayl45VlQfEmlFF4IE0S2zX6ct25LHX5u1YOr1rrEXaYyDKjPwNT26rmCU+MWXlETubov3wqpR/xVvE/AxPhp8ZUb4njsYiOry36S6bbn5WamJlLIY9PyZTvgwkePB/cmL632ziF1ZPaOfvoS1wyZx2AX3LxCVnPGQfaM9MaVKmH7DDnJYAM20dUnPYh+amJUXOAhaZ0yzghpN9rvMmkGJO/QAf38ec2nlDyY2crI0rF6bOSkl5Izm5X1JSUlK/5OQ3UlJmpy5cuTEr52aJN7Q2p9f0OprcpXnNENLQVrN51+RjenU2ofBxp1jrU8GkddAJrTh7bLi5tEorYNXn1y64h9gbkeZNCpG7CzIuKGIuSGtlHk9vMljp46zUxEpEKxgdT9pPRngxUfhzKZvuqmDmrJfM4bltrPLv74Y2tFDZbozutOhn3Y1wFypraTj0u4sKmLc+633PbWL59syUJuQ5/DpSEEteGG9HroaVKTcuOeOBNOas9t7VZifLNg6894w/wV8w+jp55TiEPwWIyP/Z9w8akpi3t/Keamkulv4OiTZ3Itst3mHZijhbQmXfkcbuVVW9wzohnxUuF7HsZfBxbfLSuvkAZ1lEVstjfjzW6gXND7DSPJFRjI4irx2D8AiRayqY9zbVzTKplGXmAFwfi7mL/GHxHss25E401pjBfYYEdrznp1XdP1nig4WNrHeBMdgiBoviyIvjiwH+DhsP3LY0+vyhGPOu2hq99oDFb02zEVEGkAG1dSP/Ia9+F3E/Ba0D1hCR7c1bYnyvsy6WFDcL304JobJjgHtWwHqQwb+DvKvCOYCP+gF+D4BRVLZC8jUhNlKtWlT4kYVvpQRT+fUAbg28wWgn8vLOCL8OtGOwbjlEgcnXRJh/DdYgZi+L5s8MIvAy8Kan0JvIWvL6n5E74Z7eAi4SGDSrQIT/jFZW9QwLGkurErwU2OZpDoP5NbyvZgHA73vaCaQhRNVWGAJ8qrKiyqdZ8GJ7EhwIOKLKq25HppEJTkPs1cqLcQJ9MaLnzwrwuWpKYs4w7v4wiESrGJ54SHlLGDwdYAb+JwBOK28kezYqiVDQx26Mc6IVBP3F+OUXSOJx4LdymrqQl0ippfmI1BUZGcsXjGhmUUIvIc4m5WwEDpPEl/Iw3lNBmiWD8c1RJPMdoMhWZguDG0nls4vuMHg77VkVtAngDWVCi4G3ZFD07xj/aJE1lWHjXStJbQZwbyJ6kUFXUwXdDrLwga4KGjkBfoWI+jHYSApZ5xgQT5T0RClUOohknwPSiSyHkTSSXmczS91UWxotRg5aiH4CTpPsIaWQ42kpwX8zan+FpC8AHgVSPwbt1aR1f8CS7ydKq24HuA9VyAfmSaOOhQifD5KxgNHCl0l+O4C7WE8j75Ps8W6WbkyTRXORk5ZuDLaRR88XIDxHQlMHUtqeFFrygDV9GLwdJms6K50mK/QmwD0ygMsWBdTRgZQ2EvuVQWMYKf0CKD6OjCHJQww1xkBJNA45WQJ8QkoHGgCvFWptIB+R2hcB+Jy/pKaFrNjeRJL/GQB+Vg0tRIxWIj8xuC9AkfWKlL4k1/84Kz/iJ4cGSPnHqijwIMBrBCqWACWNSfUHMs5YJU1kDcdK8jsn431S3bAEKK2EvcngHFJe35AwiOQG3dDhZrAcGibBiFdG8wGegu0DHkaqoyyxi/6S3mAtx0jyuyC2m9RH3Af+hKJdwHuk4WixEST5sB4HJNFoseEa0BzAGYn0Yc+umjqEF4pcCpAUz5rGSgrMEykI1aGO2xP3QuYBu0nL1SLJJHmMLqMl0ViR5aTlX8AcZB3wlh7tBa5UkLVSl+WyKlwTeFGP2cCvyBmggx7Wf7DxJPugLvtk0SQs16JHJ+A0cgOopQe9BT2wSbuly01pIfeh6aRnHeA6YgdCNIkuRT4i6UW62KXRp0hJjCahQAHiBPw1oTvIcHlOXZzyRiI3SVN/wIk8BCI1eZrRP+Q91uWhvEyEn9AkGriP5AFNNVkDGY2kXdLlorQmBrRKk+bAZeQA0E+P6GKIl0nbqsvv0lYxXBSpxwBgH7IM+EaPcYw7YmV9rMuHsuKdGCfrkQYsRqYC/1i0OCzAabK66fKqrKUsuE8L61VgCvI0wO11aMqipbUkhRbqUWCTVMchwo106MTgk4jffWCdDp8I8VeSKF2PVST5OxZeoMNG4K4fQmsAI0Gd/02x4hqSntHjKUnVisWu+6l7wgDSCe4K8B6LskSW+Jkk2qVDJkn+kiV2UWbNYrAz5pcH8Ghlv8oorCyphVOdq5WkKkUy1ip7ncHLVoxmIfkNFcWUyuCPJdGn6j4iyZ+xzJIoRU3syEwSDLsHcHaompEMOoHiOpIC9qs6FCipbgngBHiomrAcBu+EidBMhH/3V7IZuLwM4JWSqMY/aq7WIsnpDC7KA9Yp8dvI6DQSDr6I8FKrgrBi4L16TsDdShI1vq7iWiOS3NoNOOPmAkU2BdbljJ4PEqOXDISXWuUNYLARrQZ4pyyqe0be6TokO5PB5dQU4D7yrMsZNdqTzGUQpwdKWwvkENV3ANxJFoWulrXSRrJfZbA0nugc8IO0Cj8xvIik2s5AvDNSUlA+MIeIvkJOWmURvXZRxt9dSLr1GLKQiOYD+UGSovYwfCpEDjUrhPhCMzndGWxNRJUeATxMHgUMPyWSPSyA5I9gML8yEbUDuKuclhcZLmhMsnu6IbYPlrICuGwhIpqNXAuRR0St52QVl1eUNacVqQzKQ2YSEVnygMVShhcy7Eok+a9jzBnRYtZ7wKdUNuQawLOVEJG17lMdOjxV10qKZzN4NbgMfQHctohFpLPgBFI5T4CvdBdqy+Cz5dAopChWkaa17cgIKvdFgFsK9brKgnNJ7fsCzNsbCcwAbljL8zsF8AYz2Mhgtl95freBqQLxW1g0lVS/K8LF7wdDW4El5LErwone9y9Gu5LHFcAWKGReCQsas0j9KKcA86W+Vk+BdqC/J8pE8mzeFnwJ2UWehwAFAZ6s/f9hUccw0vHVRyLMp/tby3uJPRtVgNYugOd523wGXa2B6gA/V551QA4LP+hIetY7KcScm+xfZi6QTeiXSGkj72pQgnxB6FngnTLWpLMsfiKedLWtFmM+NyKYaB/wGRR+HeBM79rB4K1I6CtgD1HIyPMscUUIaZx0X4z5UdpTTqAbRIMQ7udNAxkdSHAPoLRl6j2W+Ggw6V07UwKzwZ6d4RjtQO5W9p6Kt5E9FizS5YkNlrm1Fmnf75oEdC8JNigBeJ33/MxgaWMSPATIvJpE3hjyXomCVBFKRbivtwxgdD6JfqLA8UUYeWmTnfJ+bWMRCLmM3K3iHdXuIXk2AUub9fK2NyIv7nNKFvOt1UOrItQL4Q3e8Ruj3QmtNiz9FkvP7kXebUk8IqtsblpSmAfagPBAbxjC6G/kMbhD6hGD5Z8a6kdeb0k8LI+ZnTlpQ5taiKjSbeRhTf2qP0DuVilTPTE1q5hVZg+1kilauu9XUO6tDbNeiRqA8Eb9tjDaN7r97I23WfH+7hYyz8ZfFCgp98E9hMfqNoHRG7kGqy5e1ZpMNnzsKVWCxa30alMCqc8eG04mHKsVu05u+Gbu1OHdX2hWI1hWcI1mL3QfMXXeNxtOuFjrWmTK7fXCix9cy809eeTIjsxt2zJ3HDlyMjf3+oNi9tqXzCnZe8x2lDmlAptX3vA1N1b8Dsw3p5+BsURxyRn5vqIoMyXBQhOAteZ0FHiVygZ1+OiQw+wcBz9sH0RluwJHzOk2UL+cskHPTFmbZ1Z5a6c8E0SeGwK3zKkUCAHKrdYjNfOauVzPTO1RjQRtQIkphbLnEpIakTA0dVOu2+tuZKZN6lCZpJZ64mAzqgXclFN+WLuk6Xe95d6M3m1DSeEdoJoZNQfOqCjbpBB6dP6OS5bzzvmHkL0xKT4PNDaj54H9qmg4xB8RhUfVjItrmZDQvkPHjh1eSUhoGRdXMyqc6BOGh5Dqg8DTZpQI/K6MvoB4OEkfyfBnpHwr0MWMhgBr1PlnQo6usro5oa1+6tYCA8xoJLBUHUVdQLjoOTlP2hk9H0XqfwD6m9EorajRI4QftZDR9D6j+U1Jwwygj7kt0YE6uxC+VkesZh6j7m6k429AdzMaASzXgmZCnBMtEnOG4emk5Sagqxn1AzL0oHSI94ZgtgMMryI9/wA6mVEisEmTwG0Q/xmKhOxgeFeQJtuBl83oZeBPTSjiBMS7bJ5C9zB8LJw03Qc8Z0YtgfO6UKULEP8VVp5tF8O5VUnXS0BTM6oGPNSG4m9BnBVWxrab4TsNSFs7UNGM/N2eOFQbSsiHOCuMKGIfw49bk7ZR7NlpNSO6BbTShzqUQrw3IuoAwyUvk75tgatkyllAH42onxvicxcYdvUmjfsDu8xpBfC+TtTfCQm6hpDO84HF5jQL2KwVDXLJcvYjrbcCM8ypK3DLohUNcMlx9iWtrfeAjuZUBeBmelE/pwxHH9K7FYMx5kRXgcmaUZJDzNGLNJ8GXCKTXg3s1o16O0UcPUj3v4BlZjUMcNfQrYddpKifbrXcwCCzqmF44hl6BXzOEhcG6DWLPRvVzIoOAJf9dIrfy1L3xuvkfwXYR6Y9FeD++lgnFbJk+0SrPkMYnGRetdzABX9d6v/JCvfE6xKYC7iqmxdtBPhNPayTC1lp4USrHjMZ/I1MvCNS2ECH5w6yaFGxAPO+tjo0LEJeNjNLNsDZNmX1f2XhnEaNz4iwe0lVZaGnGDxOpt4D4Q0Baip+6WDhH0OJQn8SYbbPj1ITuJnRbuZmOYDwb8EKqsx7xMKlE6jcSQ4R5odzKysIWc9oFpn8ky6ED8fKavl9MYvnPk0en7kkxFz0XQtZcUcZdbU1O1oIsX1akISKyftZovsrG4GhXxtCzLz33zESgqbZGf6YTN92AWK+NqsW1mTyVifLvPgiCb6UK4HZ8d9JjbHa/7nO+LkQ86NmBRizcerbCd1ebtchccInmfdYrvsLGwnbvjIklL237ZMJiR3avtJt4nenDRbMb0K+sK8hoOG5F0jqixfkqHT3It/4hqHVnXEBJDlwRr5WRjL5ykmGPkULwklhtaUufYzx5DuTCjUxMmJJcaNVbk2KB5EvTbisg/OHlqRhqzVOHS61Id8a+pVb1aMv6pKmsV8+UuX+0kY+9+ntSvaPDCGNbaMOKsl8inzy8+tKJR2fFU/a1599UlLpb8+Rz6444fcCkYvpw6qTl9YYkZ4rkr9lfAz5dv8nhn/ww6adhzI3r/4g+eVI8vLIV8bMX70l89DOTT/MG9bOn/5fSABWUDggbA4AADBAAJ0BKtwAywA+bSyRRaQ/oZnpfXH4BsS2CKAlVtsAm1vif2o/S+BAfQA0QC1BIL/adWxVHt39j/br+ue9TVP6x/V/1d/ZPcj3M9PegZ4p+4f+X/Cen39XvcH/Df9b/1PcA/U79i+sJ5gP2Z/cf3j/9R+zPuA/tvqAf2b/Z////6e9p/2fYE9AD9ufV2/7P71/BJ/Wv+5+5/tOf///oe4B/+vUA/8vWX9eP7H+Ff4P/j/oB+AHw7Fz2QVufsXmBvk2ua0Bulh+06nNqYzGKyoyiOX2NNhUGGCYiQ0/vAcv3B77D58h2dgF3xfFydQ95AJmNKx283AK0za/0SC9sq3nUyXqtCDcKyff0mw1gXRgNH0asE7PrX7tmpJrS64G+Ko3WpjGu/ERzk7e6qpL9oGCS9dhTSJtMJYyNvQK0wdQ+xL8RWTK90P8AMMvBJTLgHlYmvSu75861dUl829ch09N1eHd2iX8Xen8fUOdjjlkvSZQLo5ZOdRAdbFyH4nfT4/qVWgX2zQAABnSEKiUMc+GstsyhQEHjU5f7iqd/m91jnboywa01CXwMJdZNREIdU5YM7WA05flBFa2g7MTiZzLSXf9jFif3AjlGeKEMSmwsvRPyiaOLrDziGUbJjTxMv+iD9XN27C31Yart4FblPFfALa1RJUqJ4pr+MwBOf1QSOuevpoIkulQAAD+/W5JaAE7FfyttKY8SDEfNCLnx5KnhV3wHQmwIjAl8T1t1gjP00/mGqjiBLZqR0PXYTI1+BtjF1XKckRdqu3cfAkwKZlEkHQ9yZr7KQwwAIo7ftYxGZNzaD7f7YIVku3BBjuiSAFbuA2Bn/i7aA9VAcbULZTOz6NKJFsx2uB+VnkMXk4B6B6/wNJVzmRWWnyVUacQELf/fG7AHr7IcUdxsR34vDhl6kcSdFGmdyZ7u+AFjz2CdGeh3uZ0prIdditvpKzeGOafIctwn7MUmWKlwvKJf+aHmzOda1PankFpDfFvZRpxjcvT//3suZrSk2WXC8mlHJ3H9A4+1ZJv2ftTmtOU2PBk52sPyDevlaDo5g7qIiCuDUfjKehhBrtdzBEuS2JZKVKEGLPzHR7+VR4D7N9Pt3kixAMgj4w1NOB6JOxCNnJnSBpAWJ0Yb7ixwyIKNGam+03QLy5L1pnnUBe7p+rOKKj2WHQ0t9LuHKEDLye1lOdjGMUSeijptTchqNHrY9K/nnXVH1hw1pB+RW0thkM/48Nu53fQmcTQCVIdz8Baj0RawFApN+W+7wTb/OJ4PelcDfw9aa4mW3ztqJpUXhXsGQDKHcQu4+ayVfvri+u/AD1lKqtMux/iN0eCnfSTzz2up97RYIsuBBbWVGxB5+wqxO4uzKzMOfN7w2li1fYuTAV0sh5ruoKDf9pydkslAuJ3zV9KorNV+c6Sbw2n1XOLF2rwse1zFMxY8Qvf1d4j6kKOUKvCdoE+HOs1FPApbZwPnGxZCx34vA9VOEOMQFmjE/zpLpsPZ27p4rx4PWFppn/gJgDWxk/PsyCTWX2T/bWV4wLU4io8gTrPlF+Y7g/8xw+kbUl8qC9UmBK3N5G92dnCCU0mYPfAWPyg5dFODKPNt3cbhIzYG0OMD4erQyv1emgTPYWbrw/EQhglPnLydRRfiZ721AiaiMREeyIeyI/8YMqfXE3+Go41lbpkQqKqGtoLqHYqV5gw/HXS9R9OoScGU+Z5cFlYDieyc1y/qRt1Bespfza0AiG+e5kBoqeX4b6rhzLV8l38mnZ3bJUUilyd04MDMRu+yior3f5dPxRtm0TOU0UWLu+PDwQK/BBAxYIu5CNsXSPlj1uD0wdO4M6nAgMhMgePzN72pODVfJ/ML3NDWLLg8cADzlG+H9OZ51DC4t1xRlmh56EUan/0vxsC6fOuymZkQMxqCAfEBAmToIj2zqR8C3Cyxtjeh2mOVxv5Wws5nrW2J5y95u7yMH12m5ebyvooNNUAwfihVySBZ1Uppy1ZESFPa/xs+uxCZpgiruSlRMeqX/79dEjewCPh1f02Kb5SWKNuyxi4KzjITzcDK6Rq5WWyh7kCO40arVL7MnQ66KOdEAW0qY+/cK3mQ2Sv5/q7tkPKYBvvulSfqOfOOlejuXun3UjytJi99aYF5lY7OGEAaUSeAlpD5LE4zALDw+n9hE99PfaTy+nsf9czqHaedsYYNGciwTkr08OSHCGsigXR3FnxYdX7Mx/kwwIjgm3HULq4j2h8fQyVwrYaG666vlkL1kn2PHf+u/fi98Su3zifZa4zttsWqe4af08MnOrI+RSFPDv4eOsh/NdGXgpcbSEFpDbbWh09O3dbcdhH1yeL/CJZjf3IQ2Y1CMiB3ZbHyqFop47+rdHxYUtoQhVP+9Zt0vfDnJZHB12EsGgsYd4+JIearm4M9Mg7StqL+FPsE2McNpTDG9eEDTyvmUI16lXlHtzWECk00msUfHGgkMI88XsOmvEjTzlQvUmfzabYD9yHz6G1la3Jb00479TWm58YXmAsmuC5sKNequNgAV+a1I/MLMYPrT9Hq7oPSDVHic3FWevQfVmb19HYqiY1kKMC/c+PAX9KzcYxkpZNZLkg/zWrvJXvgqvf77W6ybCjfXVN4oUJArsaZTmWjsKFgiU0faChG7foL6AGrUlVjegrH4dWJbWoAtuvxzgnjZGT1N1V/NH8/5Q1ITps83ezieVBBFvyb4fFb33vrRDi4tPSL+hFgAj0MaJ+zzVQIbj3eUHQIFP5LP1gntYqHa0/u5vp9uzFLF/YvN2UUpia5RCLKQr0Bhev9ZNjNJE/V+2ja2fkP/OfDUOnRdxypmhMiLn7TgklEOBEILhDHOyyMJS+yyDACQYFMmIMtuBeJIQJfop/tl7BnAdSFGpjUiRgWEya8Ch1I1oac6qO7SFjyREvzt3sb3dF5xB7R4I1heMuXYP5LvS+CU74aG8j+pdKwVFbtOB9YyDFxKr0AZabEEp6vUIbwoiDyU0RSXbalKf/kidS/mKozBRkdjzUp716GSpiVGh2XJi1ruABxzMEjE7dIg4m99REE7iX46rDwCH5xaopvG23Pn4Y/yMUCHtwtBmAT8ny2yDCUCyo0IrYxlfIBg6cdUgumHHV7nKl+T4GTXfA9n8xBa95gSxi0/O1bwU8vNaTg6+XpApA1ewE6nf9/XK5Sde23k4KzVOtNUnEdvLf+Wx/3ybg2SKm6TnIvw+REsICRjXzBQ/Tcf1qKQ8QNBbeshAH0UTJc6d0blmbkNnCpK+NS3KqVlijAqU4/MqZEiH6yoKKxJIJjh1m1RjGPiepT0jZBeepbiVrIcKffnU/xIUt8RFVXKTL4F9UICjrMfqnew8QJAxtCDgCotJCWNtgSEGOB8HJtGe9Tf//jaxVqQT3lQK5NZ+PAqJL2AW2YVx2aQ0onBN5ck7x0/PQ4BEoNXaPv3vzv9pQowRfzTd9JHPtmTUzwAaGDZy44cI1Ck4mlp6wxJuUHM+HOrs1P0q/S3fF6ryn0/++0z+KbYTKxnA3ULY9Iq9ckaO2ChtPTA6+RCbADmRAxH7vJgcZWDDMCaKfHQ++ZnVw6bL28cjoewUTOxfUZoXv/53+0oboy2OBCLe0+kfKRchDe/M2CkSHlEROAkR7Gi0ObKYqTaqXrf/yPC+aVn0z5i3J4mL0tQt+9Q5qawRQAo5JN0v+R98n0kpgemzrUnbaXA+STjgLoCl1uu+b4Qarhxeea2yuS716rwatZZiUn0A81Ovyxm6rcDIqEAyEaD5sfcIEJ2O3NE7OX2+Zsmgv+VljoGO8P3qF2DmCoABtd8Mi5drHi8bEoVVtlqF+OXa5EGj1+iVZDA9Ag54ICIX310dyzj3A22PNz1jXwl7f8TkXa45SQoC+0pB9LaJt8Owb9dixDlDSkyrqzek77cEP6lo6dR6OBAT9H8IutAoblg0Fthab939OSs56wiamMbGioSbOEjjt8N8r4mpBiDcdUQskPQyw+quiDYhO0ABhl2isgU8rENdVr5eSEARZXnLIT29brt8yYJS/rgqJ1xsHm+H/eSsLxScPKkte4jF/+p8CQIAHdJ4eFOFeXsGcJt5uzgtmk4Lf8X5pmQZrmM+KJBFtejddo2MlKmmX8eQqS8L0HwKW5lYpP/3TDhD0B1ipCbmjHboa/PkI2IIqoe/2n58sp+7cIKHaez7taElQQouLvNvP7IfpP/i1jc+4YcDfvpr2ezasi9nQdn3btubGb88IrvmJIf95I+/Hc547YdLlEVs6/lSdtL0mbaf1fzt08AW/OAALUtonJLe+WCLXQLqPB/RXPIAtS3ckPtJdAzUpiE/3heP+KhlABT+L8b9J3Sk40vuWfgzYA1YEbrOcdbBJlkOqEi+8ei5qt3mfTh7+eUhdKk+ucoB0fu7E8MdTG+pPuL3KiHJjfTDD2mhV8+X007d6FYEUZlQjMk2nPaGOdk7Ag/LMaWDx/PT4XRNkhkn5/q4rN58z11R+b3hqmkbk/icV/OJbmIAIsA1Red7AScQAEOvkPZPyMUBi2XZr3BydX2UOZNYSw8+jwwEL6AFTmZ1uGtdG3aY81aWFtHK+Fl6yH/CxMVWspS3ssZgV0i3zXhmd7GZfSoFBow2I3nLc1OaGpZW2cpZf13bkufYQqEbNz6K9fF/LOSn0Gi8zth4FBFNP+qvJ3A5uaqRqdHlYxUaSD4QgDS99fEYJlLPdza/QRakEg6yxXk8m4Njy1sfm4bvmC2+YlMsE9aqFiVueyV+cllsXxdTu7xlraScW1vTSXx70EJiX6FINt9cNv7u0tf9X9bEX3/rQAAH6x9mxTpj7914mv18iiDEOB6+ErPx7UHt2od6sTQhI9cUKq2TcEi43NMuqtkgQTdOm7CEpORgCWbjDbv5rJ8fjyJLVOBpWx7Z9QyiBYQ2P4k5g7V85wAAAAAAARVhJRroAAABFeGlmAABJSSoACAAAAAYAEgEDAAEAAAABAAAAGgEFAAEAAABWAAAAGwEFAAEAAABeAAAAKAEDAAEAAAACAAAAEwIDAAEAAAABAAAAaYcEAAEAAABmAAAAAAAAAEgAAAABAAAASAAAAAEAAAAGAACQBwAEAAAAMDIxMAGRBwAEAAAAAQIDAACgBwAEAAAAMDEwMAGgAwABAAAA//8AAAKgBAABAAAA3AAAAAOgBAABAAAAywAAAAAAAAA=;" vertex="1" parent="11">
                    <mxGeometry x="385" y="60" width="220" height="203" as="geometry"/>
                </mxCell>
                <mxCell id="56" style="edgeStyle=none;jumpSize=6;html=1;exitX=0.5;exitY=1;exitDx=0;exitDy=0;exitPerimeter=0;endArrow=open;endFill=0;endSize=6;dashed=1;strokeWidth=3;entryX=0.499;entryY=0.039;entryDx=0;entryDy=0;entryPerimeter=0;" parent="1" source="11" target="7" edge="1">
                    <mxGeometry relative="1" as="geometry">
                        <mxPoint x="-139.99999999999955" as="sourcePoint"/>
                        <mxPoint x="-144.82999999999953" y="108.25999999999999" as="targetPoint"/>
                        <Array as="points"/>
                    </mxGeometry>
                </mxCell>
                <mxCell id="72" value="&amp;lt;&amp;lt;use&amp;gt;&amp;gt;" style="edgeLabel;html=1;align=center;verticalAlign=middle;resizable=0;points=[];fontSize=14;" vertex="1" connectable="0" parent="56">
                    <mxGeometry x="-0.033" y="1" relative="1" as="geometry">
                        <mxPoint as="offset"/>
                    </mxGeometry>
                </mxCell>
            </root>
        </mxGraphModel>
    </diagram>
</mxfile>